<svg version="1.1" xmlns="http://www.w3.org/2000/svg" viewBox="0 0 212.21934651105653 210.2463549855131" width="212.21934651105653" height="210.2463549855131">
  <!-- svg-source:excalidraw -->
  <!-- RED: #dd2a2a -->
  <defs>
    <style class="style-fonts">
      @font-face {
        font-family: "Virgil";
        src: url("https://excalidraw.com/Virgil.woff2");
      }
      @font-face {
        font-family: "Cascadia";
        src: url("https://excalidraw.com/Cascadia.woff2");
      }
    </style>
  </defs>
  <g stroke-linecap="round" transform="translate(10 9.999999999999986) rotate(0 96.10967325552826 95.12317749275655)"><path d="M192.22 95.12 C192.22 98.23, 192.06 101.35, 191.76 104.45 C191.45 107.54, 190.99 110.63, 190.37 113.68 C189.76 116.73, 188.99 119.76, 188.08 122.74 C187.17 125.71, 186.11 128.65, 184.9 131.53 C183.7 134.4, 182.35 137.22, 180.87 139.96 C179.39 142.7, 177.77 145.39, 176.02 147.97 C174.28 150.55, 172.4 153.07, 170.4 155.47 C168.41 157.87, 166.29 160.19, 164.07 162.39 C161.85 164.58, 159.51 166.68, 157.08 168.65 C154.65 170.63, 152.12 172.49, 149.51 174.22 C146.89 175.94, 144.18 177.55, 141.42 179.01 C138.65 180.48, 135.79 181.82, 132.89 183.01 C129.99 184.19, 127.01 185.25, 124.01 186.15 C121 187.05, 117.94 187.81, 114.86 188.42 C111.78 189.02, 108.66 189.48, 105.53 189.79 C102.41 190.09, 99.25 190.25, 96.11 190.25 C92.97 190.25, 89.81 190.09, 86.69 189.79 C83.56 189.48, 80.44 189.02, 77.36 188.42 C74.28 187.81, 71.22 187.05, 68.21 186.15 C65.21 185.25, 62.23 184.19, 59.33 183.01 C56.43 181.82, 53.57 180.48, 50.8 179.01 C48.03 177.55, 45.32 175.94, 42.71 174.22 C40.1 172.49, 37.57 170.63, 35.14 168.65 C32.71 166.68, 30.37 164.58, 28.15 162.39 C25.93 160.19, 23.81 157.87, 21.82 155.47 C19.82 153.07, 17.94 150.55, 16.2 147.97 C14.45 145.39, 12.83 142.7, 11.35 139.96 C9.87 137.22, 8.52 134.4, 7.32 131.53 C6.11 128.65, 5.05 125.71, 4.14 122.74 C3.23 119.76, 2.46 116.73, 1.85 113.68 C1.23 110.63, 0.77 107.54, 0.46 104.45 C0.16 101.35, 0 98.23, 0 95.12 C0 92.02, 0.16 88.89, 0.46 85.8 C0.77 82.71, 1.23 79.61, 1.85 76.57 C2.46 73.52, 3.23 70.48, 4.14 67.51 C5.05 64.54, 6.11 61.59, 7.32 58.72 C8.52 55.85, 9.87 53.02, 11.35 50.28 C12.83 47.54, 14.45 44.86, 16.2 42.28 C17.94 39.69, 19.82 37.18, 21.82 34.78 C23.81 32.38, 25.93 30.06, 28.15 27.86 C30.37 25.66, 32.71 23.56, 35.14 21.59 C37.57 19.62, 40.1 17.76, 42.71 16.03 C45.32 14.3, 48.03 12.7, 50.8 11.23 C53.57 9.77, 56.43 8.43, 59.33 7.24 C62.23 6.05, 65.21 5, 68.21 4.1 C71.22 3.19, 74.28 2.43, 77.36 1.83 C80.44 1.22, 83.56 0.76, 86.69 0.46 C89.81 0.15, 92.97 0, 96.11 0 C99.25 0, 102.41 0.15, 105.53 0.46 C108.66 0.76, 111.78 1.22, 114.86 1.83 C117.94 2.43, 121 3.19, 124.01 4.1 C127.01 5, 129.99 6.05, 132.89 7.24 C135.79 8.43, 138.65 9.77, 141.42 11.23 C144.18 12.7, 146.89 14.3, 149.51 16.03 C152.12 17.76, 154.65 19.62, 157.08 21.59 C159.51 23.56, 161.85 25.66, 164.07 27.86 C166.29 30.06, 168.41 32.38, 170.4 34.78 C172.4 37.18, 174.28 39.69, 176.02 42.28 C177.77 44.86, 179.39 47.54, 180.87 50.28 C182.35 53.02, 183.7 55.85, 184.9 58.72 C186.11 61.59, 187.17 64.54, 188.08 67.51 C188.99 70.48, 189.76 73.52, 190.37 76.57 C190.99 79.61, 191.45 82.71, 191.76 85.8 C192.06 88.89, 192.14 93.57, 192.22 95.12 C192.3 96.68, 192.3 93.57, 192.22 95.12" stroke="none" stroke-width="0" fill="#fff"></path><path d="M192.22 95.12 C192.22 98.23, 192.06 101.35, 191.76 104.45 C191.45 107.54, 190.99 110.63, 190.37 113.68 C189.76 116.73, 188.99 119.76, 188.08 122.74 C187.17 125.71, 186.11 128.65, 184.9 131.53 C183.7 134.4, 182.35 137.22, 180.87 139.96 C179.39 142.7, 177.77 145.39, 176.02 147.97 C174.28 150.55, 172.4 153.07, 170.4 155.47 C168.41 157.87, 166.29 160.19, 164.07 162.39 C161.85 164.58, 159.51 166.68, 157.08 168.65 C154.65 170.63, 152.12 172.49, 149.51 174.22 C146.89 175.94, 144.18 177.55, 141.42 179.01 C138.65 180.48, 135.79 181.82, 132.89 183.01 C129.99 184.19, 127.01 185.25, 124.01 186.15 C121 187.05, 117.94 187.81, 114.86 188.42 C111.78 189.02, 108.66 189.48, 105.53 189.79 C102.41 190.09, 99.25 190.25, 96.11 190.25 C92.97 190.25, 89.81 190.09, 86.69 189.79 C83.56 189.48, 80.44 189.02, 77.36 188.42 C74.28 187.81, 71.22 187.05, 68.21 186.15 C65.21 185.25, 62.23 184.19, 59.33 183.01 C56.43 181.82, 53.57 180.48, 50.8 179.01 C48.03 177.55, 45.32 175.94, 42.71 174.22 C40.1 172.49, 37.57 170.63, 35.14 168.65 C32.71 166.68, 30.37 164.58, 28.15 162.39 C25.93 160.19, 23.81 157.87, 21.82 155.47 C19.82 153.07, 17.94 150.55, 16.2 147.97 C14.45 145.39, 12.83 142.7, 11.35 139.96 C9.87 137.22, 8.52 134.4, 7.32 131.53 C6.11 128.65, 5.05 125.71, 4.14 122.74 C3.23 119.76, 2.46 116.73, 1.85 113.68 C1.23 110.63, 0.77 107.54, 0.46 104.45 C0.16 101.35, 0 98.23, 0 95.12 C0 92.02, 0.16 88.89, 0.46 85.8 C0.77 82.71, 1.23 79.61, 1.85 76.57 C2.46 73.52, 3.23 70.48, 4.14 67.51 C5.05 64.54, 6.11 61.59, 7.32 58.72 C8.52 55.85, 9.87 53.02, 11.35 50.28 C12.83 47.54, 14.45 44.86, 16.2 42.28 C17.94 39.69, 19.82 37.18, 21.82 34.78 C23.81 32.38, 25.93 30.06, 28.15 27.86 C30.37 25.66, 32.71 23.56, 35.14 21.59 C37.57 19.62, 40.1 17.76, 42.71 16.03 C45.32 14.3, 48.03 12.7, 50.8 11.23 C53.57 9.77, 56.43 8.43, 59.33 7.24 C62.23 6.05, 65.21 5, 68.21 4.1 C71.22 3.19, 74.28 2.43, 77.36 1.83 C80.44 1.22, 83.56 0.76, 86.69 0.46 C89.81 0.15, 92.97 0, 96.11 0 C99.25 0, 102.41 0.15, 105.53 0.46 C108.66 0.76, 111.78 1.22, 114.86 1.83 C117.94 2.43, 121 3.19, 124.01 4.1 C127.01 5, 129.99 6.05, 132.89 7.24 C135.79 8.43, 138.65 9.77, 141.42 11.23 C144.18 12.7, 146.89 14.3, 149.51 16.03 C152.12 17.76, 154.65 19.62, 157.08 21.59 C159.51 23.56, 161.85 25.66, 164.07 27.86 C166.29 30.06, 168.41 32.38, 170.4 34.78 C172.4 37.18, 174.28 39.69, 176.02 42.28 C177.77 44.86, 179.39 47.54, 180.87 50.28 C182.35 53.02, 183.7 55.85, 184.9 58.72 C186.11 61.59, 187.17 64.54, 188.08 67.51 C188.99 70.48, 189.76 73.52, 190.37 76.57 C190.99 79.61, 191.45 82.71, 191.76 85.8 C192.06 88.89, 192.14 93.57, 192.22 95.12 C192.3 96.68, 192.3 93.57, 192.22 95.12" stroke="#fff" stroke-width="1" fill="none"></path></g><g stroke-linecap="round"><g transform="translate(106.07052179171183 83.91665361400564) rotate(0 0.1919596315233889 28.06978752732627)"><path d="M0 0 C0.06 9.36, 0.32 46.78, 0.38 56.14 M0 0 C0.06 9.36, 0.32 46.78, 0.38 56.14" stroke="#222" stroke-width="4" fill="none"></path></g></g><mask></mask><g stroke-linecap="round"><g transform="translate(106.97718559202121 140.79636550095626) rotate(0 23.934371060366004 -14.358948243813288)"><path d="M0 0 C7.98 -4.79, 39.89 -23.93, 47.87 -28.72 M0 0 C7.98 -4.79, 39.89 -23.93, 47.87 -28.72" stroke="#222" stroke-width="4" fill="none"></path></g></g><mask></mask><g stroke-linecap="round"><g transform="translate(155.23908446518033 84.25052196581689) rotate(0 -0.06454117173024088 13.176399849543557)"><path d="M0 0 C-0.02 4.39, -0.11 21.96, -0.13 26.35 M0 0 C-0.02 4.39, -0.11 21.96, -0.13 26.35" stroke="#222" stroke-width="4" fill="none"></path></g></g><mask></mask><g stroke-linecap="round"><g transform="translate(155.46789962046228 111.19235463033132) rotate(0 11.05197069756997 7.263237528636637)"><path d="M0 0 C3.68 2.42, 18.42 12.11, 22.1 14.53 M0 0 C3.68 2.42, 18.42 12.11, 22.1 14.53" stroke="#222" stroke-width="4" fill="none"></path></g></g><mask></mask><g stroke-linecap="round"><g transform="translate(82.2909619706736 67.96698004046144) rotate(0 11.89233703699739 7.828432538605625)"><path d="M0 0 C3.96 2.61, 19.82 13.05, 23.78 15.66 M0 0 C3.96 2.61, 19.82 13.05, 23.78 15.66" stroke="#222" stroke-width="4" fill="none"></path></g></g><mask></mask><g stroke-linecap="round"><g transform="translate(129.62179677358245 69.22795865644309) rotate(0 -11.772660014898918 7.220064126108795)"><path d="M0 0 C-3.92 2.41, -19.62 12.03, -23.55 14.44 M0 0 C-3.92 2.41, -19.62 12.03, -23.55 14.44" stroke="#222" stroke-width="4" fill="none"></path></g></g><mask></mask><g stroke-linecap="round"><g transform="translate(56.15624348921642 111.99545694084185) rotate(0 24.74636380462306 14.5193991730456)"><path d="M0 0 C8.25 4.84, 41.24 24.2, 49.49 29.04 M0 0 C8.25 4.84, 41.24 24.2, 49.49 29.04" stroke="#222" stroke-width="4" fill="none"></path></g></g><mask></mask><g stroke-linecap="round"><g transform="translate(56.70518498293961 85.10208771006336) rotate(0 -0.11538595369313498 12.777295458711095)"><path d="M0 0 C-0.04 4.26, -0.19 21.3, -0.23 25.55 M0 0 C-0.04 4.26, -0.19 21.3, -0.23 25.55" stroke="#222" stroke-width="4" fill="none"></path></g></g><mask></mask><g stroke-linecap="round"><g transform="translate(56.89784519705972 111.49979475360533) rotate(0 -10.955868279853917 6.782427692452302)"><path d="M0 0 C-3.65 2.26, -18.26 11.3, -21.91 13.56 M0 0 C-3.65 2.26, -18.26 11.3, -21.91 13.56" stroke="#222" stroke-width="4" fill="none"></path></g></g><mask></mask></svg>