<svg xmlns="http://www.w3.org/2000/svg" width="24" height="24" viewBox="0 0 24 24"><path fill="#444" d="M12 11q-3.75 0-6.375-1.175T3 7q0-1.65 2.625-2.825T12 3q3.75 0 6.375 1.175T21 7q0 1.65-2.625 2.825T12 11Zm0 5q-3.75 0-6.375-1.175T3 12V9.5q0 1.1 1.025 1.863t2.45 1.237q1.425.475 2.963.688T12 13.5q1.025 0 2.563-.213t2.962-.687q1.425-.475 2.45-1.237T21 9.5V12q0 1.65-2.625 2.825T12 16Zm0 5q-3.75 0-6.375-1.175T3 17v-2.5q0 1.1 1.025 1.863t2.45 1.237q1.425.475 2.963.688T12 18.5q1.025 0 2.563-.213t2.962-.687q1.425-.475 2.45-1.238T21 14.5V17q0 1.65-2.625 2.825T12 21Z"/></svg>