<svg xmlns="http://www.w3.org/2000/svg" xmlns:xlink="http://www.w3.org/1999/xlink" viewBox="0 0 200 200" width="32" height="32" xmlns:v="https://vecta.io/nano"><use xlink:href="#B" fill="#fff"/><use xlink:href="#B" stroke="#fff" fill="none" stroke-linecap="round"/><g stroke-width="10" fill="none" stroke-linecap="round"><path d="M106.071 83.917l.38 56.14m-.38-56.14l.38 56.14" stroke="#c92a2a"/><path d="M106.977 140.796l47.87-28.72m-47.87 28.72l47.87-28.72m.392-27.825l-.13 26.35m.13-26.35l-.13 26.35m.359.591l22.1 14.53m-22.1-14.53l22.1 14.53M82.291 67.967l23.78 15.66m-23.78-15.66l23.78 15.66m23.551-14.399l-23.55 14.44m23.55-14.44l-23.55 14.44m-49.916 28.327l49.49 29.04m-49.49-29.04l49.49 29.04M56.705 85.102l-.23 25.55m.23-25.55l-.23 25.55m.423.848l-21.91 13.56m21.91-13.56l-21.91 13.56" stroke="#dd2a2a"/></g><defs ><path id="B" d="M202.22 105.12l-.46 9.33-1.39 9.23c-.61 3.05-1.38 6.08-2.29 9.06l-3.18 8.79-4.03 8.43-4.85 8.01-5.62 7.5-6.33 6.92-6.99 6.26-7.57 5.57-8.09 4.79-8.53 4-8.88 3.14-9.15 2.27-9.33 1.37-9.42.46c-3.14 0-6.3-.16-9.42-.46l-9.33-1.37-9.15-2.27-8.88-3.14-8.53-4-8.09-4.79-7.57-5.57-6.99-6.26-6.33-6.92a92.71 92.71 0 0 1-5.62-7.5 93.19 93.19 0 0 1-4.85-8.01l-4.03-8.43c-1.21-2.88-2.27-5.82-3.18-8.79l-2.29-9.06c-.62-3.05-1.08-6.14-1.39-9.23l-.46-9.33c0-3.1.16-6.23.46-9.32a92.55 92.55 0 0 1 1.39-9.23 93.82 93.82 0 0 1 2.29-9.06l3.18-8.79c1.2-2.87 2.55-5.7 4.03-8.44a93.02 93.02 0 0 1 4.85-8c1.74-2.59 3.62-5.1 5.62-7.5l6.33-6.92a94.43 94.43 0 0 1 6.99-6.27l7.57-5.56 8.09-4.8 8.53-3.99 8.88-3.14a93.3 93.3 0 0 1 9.15-2.27c3.08-.61 6.2-1.07 9.33-1.37 3.12-.31 6.28-.46 9.42-.46l9.42.46 9.33 1.37a93.3 93.3 0 0 1 9.15 2.27l8.88 3.14 8.53 3.99 8.09 4.8 7.57 5.56 6.99 6.27 6.33 6.92c2 2.4 3.88 4.91 5.62 7.5a93.02 93.02 0 0 1 4.85 8l4.03 8.44c1.21 2.87 2.27 5.82 3.18 8.79a93.82 93.82 0 0 1 2.29 9.06 92.55 92.55 0 0 1 1.39 9.23l.46 9.32c.08 1.56.08-1.55 0 0"/></defs></svg>